<?xml version="1.0" standalone="no"?><!DOCTYPE svg PUBLIC "-//W3C//DTD SVG 1.1//EN" "http://www.w3.org/Graphics/SVG/1.1/DTD/svg11.dtd"><svg t="1671463345250" class="icon" viewBox="0 0 1024 1024" version="1.1" xmlns="http://www.w3.org/2000/svg" p-id="4887" xmlns:xlink="http://www.w3.org/1999/xlink" width="200" height="200"><path d="M764.8 916.949333a31.146667 31.146667 0 0 1-31.616-31.616v-82.944H650.24a31.573333 31.573333 0 1 1 0-63.189333h82.944v-82.944a31.616 31.616 0 1 1 63.189333 0v82.944h82.944a31.573333 31.573333 0 1 1 0 63.189333h-82.944v82.944c3.968 19.754667-11.818667 31.616-31.573333 31.616z m-442.410667-7.893333a31.146667 31.146667 0 0 1-31.573333-31.616 329.6 329.6 0 0 1 327.808-327.850667 162.133333 162.133333 0 1 1 162.133333-162.133333 160.128 160.128 0 0 1-162.133333 162.133333 354.944 354.944 0 0 1 142.208 31.616 206.848 206.848 0 0 0-90.837333 39.509334 224.256 224.256 0 0 0-51.2-3.968 260.266667 260.266667 0 0 0-260.650667 260.693333 32.298667 32.298667 0 0 1-35.584 31.616z m296.234667-616.192a94.805333 94.805333 0 1 0 94.805333 94.805333 96.085333 96.085333 0 0 0-94.805333-94.805333zM144.682667 790.528a31.146667 31.146667 0 0 1-31.616-31.573333 321.152 321.152 0 0 1 315.989333-323.882667 258.688 258.688 0 0 0 31.573333 67.157333h-19.712a260.266667 260.266667 0 0 0-260.693333 260.650667 31.914667 31.914667 0 0 1-35.541333 27.648z m284.373333-359.424a160.426667 160.426667 0 0 1-154.069333-169.856 163.968 163.968 0 0 1 173.824-154.026667 170.922667 170.922667 0 0 1 138.24 90.837334 174.506667 174.506667 0 0 0-63.189334 23.722666 97.450667 97.450667 0 0 0-134.314666-35.541333 97.834667 97.834667 0 0 0 35.541333 181.674667v23.68a133.845333 133.845333 0 0 0 3.968 39.509333z" p-id="4888"></path></svg>